<svg width="21" height="21" viewBox="0 0 21 21" fill="none" xmlns="http://www.w3.org/2000/svg">
<path d="M15.5 0.5C18.5 0.5 20.5 3.5 20.5 6.5C20.5 8.61 19.5 11.5 18.5 12.5C17.5 13.5 16.5 20.5 14.5 20.5C9.96 20.5 12.5 13.5 10.5 13.5C8.5 13.5 11.04 20.5 6.5 20.5C4.5 20.5 3.5 13.5 2.5 12.5C1.5 11.5 0.5 8.61 0.5 6.5C0.5 3.5 2.5 0.5 5.5 0.5C8.5 0.5 8.5 1.5 10.5 1.5C12.5 1.5 12.5 0.5 15.5 0.5ZM15.5 2.5C13.5 2.5 12.5 3.5 10.5 3.5C8.5 3.5 7.5 2.5 5.5 2.5C3.83 2.5 2.5 4.5 2.5 6.5C2.5 8.25 3.36 10.61 4.31 11.56C5.17 12.42 6.44 18.44 7 18.44C7.21 18.44 7.5 17.38 7.5 16.09C7.5 14.05 8.07 11.5 10.5 11.5C12.93 11.5 13.5 14.05 13.5 16.09C13.5 17.38 13.79 18.44 14 18.44C14.56 18.44 15.83 12.42 16.69 11.56C17.64 10.61 18.5 8.25 18.5 6.5C18.5 4.5 17.17 2.5 15.5 2.5Z" fill="#005490"/>
</svg>
