<svg width="1482" height="1375" viewBox="0 0 1482 1375" fill="none" xmlns="http://www.w3.org/2000/svg">
<path fill-rule="evenodd" clip-rule="evenodd" d="M407.277 284.307C413.202 264.983 416.39 244.461 416.39 223.195C416.39 108.212 323.178 15 208.195 15C93.2121 15 0 108.212 0 223.195C0 325.394 73.6374 410.394 170.749 428.032C224.883 446.962 263.714 498.488 263.714 559.083C263.714 567.112 263.032 574.982 261.723 582.638C255.798 601.962 252.61 622.483 252.61 643.749C252.61 758.732 345.822 851.944 460.805 851.944C575.788 851.944 669 758.732 669 643.749C669 541.55 595.363 456.55 498.251 438.912C444.117 419.982 405.286 368.456 405.286 307.861C405.286 299.832 405.968 291.963 407.277 284.307Z" fill="white" fill-opacity="0.2"/>
<path fill-rule="evenodd" clip-rule="evenodd" d="M812.946 442.405C803.213 410.659 797.975 376.948 797.975 342.012C797.975 153.124 951.099 0 1139.99 0C1328.88 0 1482 153.124 1482 342.012C1482 509.9 1361.03 649.534 1201.5 678.508C1112.57 709.606 1048.78 794.25 1048.78 893.792C1048.78 906.982 1049.9 919.91 1052.05 932.486C1061.79 964.232 1067.02 997.943 1067.02 1032.88C1067.02 1221.77 913.901 1374.89 725.012 1374.89C536.124 1374.89 383 1221.77 383 1032.88C383 864.99 503.968 725.356 663.497 696.382C752.427 665.284 816.216 580.64 816.216 481.098C816.216 467.909 815.096 454.981 812.946 442.405Z" fill="white" fill-opacity="0.2"/>
</svg>
